<svg class="svg-icon" style="width: 1em; height: 1em;vertical-align: middle;fill: currentColor;overflow: hidden;" viewBox="0 0 1024 1024" version="1.1" xmlns="http://www.w3.org/2000/svg"><path d="M295.107048 67.291429c0-37.010286-30.273016-67.291429-67.283302-67.291429H67.397079C30.378667 0 0.097524 30.281143 0.097524 67.291429v160.215365c0 37.010286 30.281143 67.291429 67.291428 67.291428h160.215365c37.010286 0 67.291429-30.281143 67.291429-67.291428V67.291429h0.203175z m-51.508826 160.426666c0 8.614603-7.151746 15.766349-15.766349 15.766349H67.380825c-8.614603 0-15.766349-7.151746-15.766349-15.766349V67.291429c0-8.630857 7.151746-15.774476 15.766349-15.774477h160.223492c8.62273 0 15.766349 7.151746 15.76635 15.76635V227.718095h0.219428z m51.508826 203.962921h-0.211302v160.223492c0 37.002159-30.273016 67.283302-67.283302 67.283302H67.388952c-37.002159 0-67.291429-30.281143-67.291428-67.291429V431.689143c0-37.010286 30.28927-67.291429 67.291428-67.291429h160.434794c37.010286 0 67.291429 30.281143 67.291429 67.291429z m-51.508826 160.223492h-0.211301V431.681016c0-8.62273-7.151746-15.766349-15.76635-15.766349H67.380825c-8.614603 0-15.766349 7.143619-15.766349 15.766349v160.223492c0 8.614603 7.151746 15.766349 15.766349 15.766349h160.434794c8.614603 0 15.766349-7.151746 15.766349-15.766349z m-15.766349 136.671492c37.002159 0 67.275175 30.281143 67.063873 67.291429v160.215365c0 37.010286-30.273016 67.291429-67.283302 67.291428H67.388952c-37.002159 0-67.291429-30.281143-67.291428-67.291428V795.859302c0-37.002159 30.28927-67.291429 67.291428-67.291429h160.434794z m15.766349 227.718095h-0.211301V796.070603c0-8.614603-7.151746-15.766349-15.76635-15.766349H67.380825c-8.614603 0-15.766349 7.151746-15.766349 15.766349v160.223492c0 8.614603 7.151746 15.766349 15.766349 15.766349h160.434794c8.614603 0 15.766349-7.151746 15.766349-15.766349zM364.495238 591.904508V431.681016c0-37.010286 30.281143-67.291429 67.291429-67.291429h160.223492c37.002159 0 67.283302 30.281143 67.283301 67.291429v160.223492c0 37.002159-30.281143 67.283302-67.291428 67.283302H431.786667c-37.010286 0-67.291429-30.281143-67.291429-67.291429z m51.525079-160.223492v160.223492c0 8.614603 7.143619 15.766349 15.76635 15.766349h160.223492c8.614603 0 15.766349-7.151746 15.766349-15.766349V431.681016c0-8.62273-7.151746-15.766349-15.766349-15.766349H431.786667c-8.62273 0-15.766349 7.143619-15.76635 15.766349z m-51.525079 524.613079V796.070603c0-37.010286 30.281143-67.291429 67.291429-67.291428h160.223492c37.002159 0 67.283302 30.281143 67.283301 67.291428v160.223492c0 37.010286-30.281143 67.291429-67.291428 67.291429H431.786667c-37.010286 0-67.291429-30.281143-67.291429-67.291429z m51.525079-160.426666v160.215365c0 8.614603 7.143619 15.766349 15.76635 15.766349h160.223492c8.614603 0 15.766349-7.151746 15.766349-15.766349V795.859302c0-8.614603-7.151746-15.766349-15.766349-15.76635H431.786667c-8.62273 0-15.766349 7.151746-15.76635 15.76635z m312.661334-203.962921V431.681016c0-37.010286 30.273016-67.291429 67.291428-67.291429h160.215365c37.010286 0 67.291429 30.281143 67.291429 67.291429v160.223492c0 37.002159-30.281143 67.283302-67.291429 67.283302H795.964952c-37.010286 0-67.291429-30.281143-67.291428-67.291429zM780.190476 431.681016v160.223492c0 8.614603 7.151746 15.766349 15.766349 15.766349h160.223492c8.614603 0 15.766349-7.151746 15.76635-15.766349V431.681016c0-8.62273-7.151746-15.766349-15.76635-15.766349H795.964952c-8.614603 0-15.766349 7.143619-15.766349 15.766349z m-51.525079 524.613079V796.070603c0-37.010286 30.281143-67.291429 67.291428-67.291428h160.223492c37.010286 0 67.291429 30.281143 67.291429 67.291428v160.223492c0 37.010286-30.281143 67.291429-67.291429 67.291429H795.964952c-37.010286 0-67.291429-30.281143-67.291428-67.291429z m51.525079-160.426666v160.215365c0 8.614603 7.151746 15.766349 15.766349 15.766349h160.223492c8.614603 0 15.766349-7.151746 15.76635-15.766349V795.859302c0-8.614603-7.151746-15.766349-15.76635-15.76635H795.964952c-8.614603 0-15.766349 7.151746-15.766349 15.76635zM364.495238 67.275175C364.495238 30.281143 394.565079 0 431.786667 0h160.223492c37.002159 0 67.283302 30.281143 67.283301 67.291429v160.215365c0 37.010286-30.281143 67.291429-67.291428 67.291428H431.786667c-37.010286 0-67.291429-30.281143-67.291429-67.291428V67.291429z m51.508825 0v160.223492c0 8.62273 7.151746 15.766349 15.76635 15.766349h160.231619c8.614603 0 15.766349-7.143619 15.766349-15.766349V67.291429c0-8.614603-7.151746-15.766349-15.766349-15.76635H431.786667c-8.62273 0-15.766349 7.151746-15.76635 15.76635zM795.964952 295.009524c-37.010286 0-67.291429-30.273016-67.291428-67.494603V67.291429c0-37.002159 30.281143-67.283302 67.291428-67.283302h160.223492c37.010286 0 67.291429 30.281143 67.291429 67.291429v160.426666c0 37.010286-30.281143 67.291429-67.291429 67.291429H795.964952z m-15.766349-227.718095v160.223492c0 8.62273 7.151746 15.766349 15.766349 15.766349h160.223492c8.614603 0 15.766349-7.143619 15.76635-15.766349V67.291429c0-8.614603-7.151746-15.766349-15.76635-15.76635H795.964952c-8.614603 0-15.766349 7.151746-15.766349 15.76635z" fill="#20A0FF" /></svg>